<?xml version="1.0" encoding="UTF-8"?>
<svg id="Layer_1" data-name="Layer 1" xmlns="http://www.w3.org/2000/svg" width="252" height="44" version="1.1" viewBox="0 0 252 44">
  <defs>
    <style>
      .cls-1 {
        fill: #0082d5;
      }

      .cls-1, .cls-2, .cls-3 {
        stroke-width: 0px;
      }

      .cls-2 {
        fill: #9c0;
      }

      .cls-3 {
        fill: #039;
      }
    </style>
  </defs>
  <g>
    <g>
      <path class="cls-1" d="M80.89,19.32h-19.29v-2.79h19.29v2.79ZM75.81,9.22v-4.02h-13.31v-2.85h17.35v6.39c0,2.08-.18,4.42-.6,6.06h-4.04c.42-1.6.6-3.77.6-5.58Z"/>
      <path class="cls-1" d="M92.8,13.22h-9.37v-6.79h7.24v-1.59h-7.24v-2.58h11.19v6.73h-7.27v1.67h5.97c1.89,0,2.95-.19,3.76-.64V2.05h4.04v13.17h-4.04v-2.71c-.78.5-2.12.71-4.29.71ZM101.41,17.43v2.73h-16.77v-6.04h4.04v3.31h12.74Z"/>
      <path class="cls-1" d="M106.96,8.53h-2.26v-2.54h2.35c1.82,0,3.41-.02,4.41-.23.05-.27.09-.58.09-.9h-6.85v-2.6h10.82v1.88c0,.58-.05,1.12-.14,1.62h2.97v-3.71h4.04v10.13h-4.04v-3.63h-4.08c-1.71,2.48-5.14,3.75-10.06,4.04v-2.63c2.63-.19,4.52-.65,5.72-1.58-.88.12-1.92.15-2.98.15ZM122.4,20.24h-16.5v-7.35h16.5v7.35ZM118.4,17.61v-2.02h-8.51v2.02h8.51Z"/>
      <path class="cls-1" d="M129.11,16.01h-3.69v-2.81h19.29v2.81h-3.67v4.23h-3.94v-4.23h-4.01v4.23h-3.97v-4.23ZM140.67,8.7h3.34v2.77h-17.9v-2.77h2.93v-3.67h-2.58v-2.77h17.21v2.77h-2.61v1.35c0,.85-.14,1.75-.39,2.33ZM137.07,5.03h-4.01v3.67h3.67c.23-.56.35-1.4.35-2.16v-1.52Z"/>
      <path class="cls-1" d="M151.44,9.2h5.72v2.75h-5.72v4.21h4.29c1.64,0,2.88-.08,3.85-.33v2.63c-.97.33-2.28.44-3.97.44h-8.14V2.35h10.66v2.79h-6.69v4.06ZM160.97,2.05h4.04v18.02h-4.04v-8.35h-3.04v-2.83h3.04V2.05Z"/>
      <path class="cls-1" d="M168.37,10.63c0-3.56.55-5.96,2.05-7.29.92-.85,2.19-1.27,3.83-1.27s2.91.42,3.83,1.27c1.48,1.33,2.03,3.73,2.03,7.29s-.55,6-2.03,7.33c-.92.83-2.24,1.23-3.83,1.23s-2.91-.4-3.83-1.23c-1.5-1.33-2.05-3.73-2.05-7.33ZM176.12,10.63c0-3.02-.23-4.67-.83-5.37-.28-.27-.65-.4-1.04-.4-.42,0-.79.13-1.04.4-.62.69-.83,2.35-.83,5.37s.21,4.73.83,5.41c.25.27.62.39,1.04.39.39,0,.76-.12,1.04-.39.6-.67.83-2.35.83-5.41ZM181.82,2.05h4.04v6.94h2.98v2.81h-2.98v8.27h-4.04V2.05Z"/>
      <path class="cls-1" d="M193.33,11.61h-2.65v-2.79h2.77c1.84,0,3.3-.08,4.29-.37.07-.58.09-1.15.09-1.79v-1.52h-7.04v-2.79h11.03v3.93c0,7.46-3.46,11.46-11.14,12.85v-2.96c3.25-.77,5.33-2.35,6.37-4.87-.92.21-2.17.31-3.71.31ZM203.92,2.05h4.04v6.94h2.98v2.81h-2.98v8.27h-4.04V2.05Z"/>
      <path class="cls-1" d="M218.65,18.91h-5.81V2.35h8.12v2.75h-4.5v11.1h2.31c1.16,0,2.17-.04,2.93-.21v2.6c-.76.23-1.84.32-3.05.32ZM222.76,11.64h-3.53v-2.83h3.53V2.16h3.51v17.73h-3.51v-8.25ZM230.81,2.05v18.02h-3.58V2.05h3.58Z"/>
      <path class="cls-1" d="M245.5,2.35v16.56h-11.03V2.35h11.03ZM238.43,16.16h3.09V5.14h-3.09v11.02ZM247.96,2.05h4.04v18.02h-4.04V2.05Z"/>
    </g>
    <g>
      <path class="cls-1" d="M80.89,41.07h-19.29v-2.79h19.29v2.79ZM75.81,30.97v-4.02h-13.31v-2.85h17.35v6.38c0,2.08-.18,4.43-.6,6.06h-4.04c.42-1.6.6-3.77.6-5.58Z"/>
      <path class="cls-1" d="M92.8,34.97h-9.37v-6.79h7.24v-1.59h-7.24v-2.58h11.19v6.73h-7.27v1.67h5.97c1.89,0,2.95-.19,3.76-.63v-7.98h4.04v13.17h-4.04v-2.71c-.78.5-2.12.71-4.29.71ZM101.41,39.18v2.73h-16.77v-6.04h4.04v3.31h12.74Z"/>
      <path class="cls-1" d="M106.96,30.28h-2.26v-2.54h2.35c1.82,0,3.41-.02,4.41-.23.05-.27.09-.58.09-.9h-6.85v-2.6h10.82v1.88c0,.58-.05,1.12-.14,1.62h2.97v-3.71h4.04v10.13h-4.04v-3.63h-4.08c-1.71,2.48-5.14,3.75-10.06,4.04v-2.63c2.63-.19,4.52-.65,5.72-1.58-.88.12-1.92.15-2.98.15ZM122.4,41.99h-16.5v-7.35h16.5v7.35ZM118.4,39.35v-2.02h-8.51v2.02h8.51Z"/>
      <path class="cls-1" d="M129.11,37.76h-3.69v-2.81h19.29v2.81h-3.67v4.23h-3.94v-4.23h-4.01v4.23h-3.97v-4.23ZM140.67,30.45h3.34v2.77h-17.9v-2.77h2.93v-3.67h-2.58v-2.77h17.21v2.77h-2.61v1.35c0,.85-.14,1.75-.39,2.33ZM137.07,26.77h-4.01v3.67h3.67c.23-.56.35-1.4.35-2.16v-1.52Z"/>
      <path class="cls-1" d="M151.44,30.95h5.72v2.75h-5.72v4.21h4.29c1.64,0,2.88-.08,3.85-.33v2.63c-.97.33-2.28.44-3.97.44h-8.14v-16.56h10.66v2.79h-6.69v4.06ZM160.97,23.79h4.04v18.02h-4.04v-8.35h-3.04v-2.83h3.04v-6.85Z"/>
      <path class="cls-1" d="M168.37,32.37c0-3.56.55-5.96,2.05-7.29.92-.85,2.19-1.27,3.83-1.27s2.91.42,3.83,1.27c1.48,1.33,2.03,3.73,2.03,7.29s-.55,6-2.03,7.33c-.92.83-2.24,1.23-3.83,1.23s-2.91-.4-3.83-1.23c-1.5-1.33-2.05-3.73-2.05-7.33ZM176.12,32.37c0-3.02-.23-4.67-.83-5.37-.28-.27-.65-.4-1.04-.4-.42,0-.79.14-1.04.4-.62.69-.83,2.35-.83,5.37s.21,4.73.83,5.41c.25.27.62.39,1.04.39.39,0,.76-.12,1.04-.39.6-.67.83-2.35.83-5.41ZM181.82,23.79h4.04v6.94h2.98v2.81h-2.98v8.27h-4.04v-18.02Z"/>
      <path class="cls-1" d="M209.26,41.07h-19.29v-2.79h19.29v2.79ZM208.22,24.1v2.77h-13.17v1.86h12.94v2.73h-12.94v1.9h13.43v2.75h-17.46v-12.02h17.21Z"/>
      <path class="cls-1" d="M223.4,24.93v2.54h-12.62v-2.54h4.34v-1.63h4.04v1.63h4.24ZM211.33,31.45c0-1.08.58-1.98,1.59-2.64.97-.61,2.38-.98,4.18-.98s3.18.37,4.15.98c1.02.65,1.59,1.56,1.59,2.64s-.58,2-1.59,2.63c-.97.62-2.38,1-4.15,1s-3.21-.39-4.18-1c-1.01-.64-1.59-1.54-1.59-2.63ZM212.3,38.37v-2.77h16.54v6.5h-4.04v-3.73h-12.5ZM215.16,31.45c0,.33.18.59.44.81.35.25.88.37,1.5.37s1.13-.12,1.48-.37c.25-.21.44-.48.44-.81s-.18-.6-.44-.79c-.35-.25-.88-.39-1.48-.39s-1.15.13-1.5.39c-.25.19-.44.46-.44.79ZM224.8,23.79h4.04v4.23h2.84v2.79h-2.84v4.1h-4.04v-11.12Z"/>
      <path class="cls-1" d="M237.21,33.72h-4.04v-2.58h10.15c1.31,0,2.49,0,3.51-.21v2.46c-.99.27-2.21.33-3.62.33h-2.01v2.58h-3.99v-2.58ZM233.91,27.26c0-1,.48-1.81,1.31-2.37,1.08-.77,2.82-1.13,4.87-1.13s3.74.37,4.82,1.13c.85.56,1.34,1.37,1.34,2.37s-.49,1.81-1.34,2.38c-1.08.77-2.82,1.12-4.82,1.12s-3.78-.35-4.87-1.12c-.83-.58-1.31-1.38-1.31-2.38ZM251.86,39.34v2.65h-16.77v-5.23h4.04v2.58h12.74ZM242.56,27.26c0-.29-.14-.52-.37-.69-.42-.29-1.18-.42-2.1-.42s-1.71.13-2.12.42c-.25.18-.39.41-.39.69,0,.31.14.54.39.69.42.29,1.18.44,2.12.44s1.68-.15,2.1-.44c.23-.15.37-.39.37-.69ZM251.58,23.79v13.77h-4.04v-.96h-4.27v-2.39h4.27v-10.42h4.04Z"/>
    </g>
  </g>
  <g>
    <path class="cls-1" d="M21.57,26.28c6.19.02,11.77,2.59,15.76,6.72h-15.32c-6.08,0-11-4.92-11-11s4.93-11,11-11h12.61L44,0h-22C9.85,0,0,9.85,0,22s9.85,22,22,22h22v-24.32h-16.8l-5.64,6.6Z"/>
    <path class="cls-3" d="M33,0C21.04,0,11.32,9.55,11.01,21.43c.29-5.81,5.1-10.43,10.99-10.43h12.61L44,0h-11Z"/>
    <path class="cls-3" d="M11.01,22.57c.3,11.89,10.03,21.43,21.99,21.43h11v-11h-22c-5.89,0-10.69-4.62-10.99-10.43Z"/>
    <path class="cls-2" d="M27.2,19.68l-5.64,6.6c10.66.03,19.53,7.64,21.52,17.72h.91v-24.32h-16.8Z"/>
  </g>
</svg>