<svg width="352" height="147" viewBox="0 0 352 147" fill="none" xmlns="http://www.w3.org/2000/svg">
<path d="M216.71 69.5879V82.0071C216.71 86.1759 218.448 88.1045 221.07 88.1045C223.882 88.1045 225.557 86.1759 225.557 82.0071V69.5879H229.444V81.7549C229.444 88.3261 226.063 91.233 220.944 91.233C216.015 91.233 212.824 88.4848 212.824 81.7859V69.5879H216.709H216.71Z" fill="black"/>
<path d="M233.737 80.4597C233.737 78.3751 233.704 76.8578 233.609 75.4993H236.959L237.117 78.4062H237.212C237.969 76.2564 239.77 75.1504 241.445 75.1504C241.825 75.1504 242.046 75.1814 242.361 75.2471V78.88C242.014 78.8175 241.666 78.7833 241.193 78.7833C239.361 78.7833 238.065 79.9549 237.717 81.7216C237.653 82.0705 237.622 82.4818 237.622 82.8932V90.885H233.737V80.4597V80.4597Z" fill="black"/>
<path d="M244.984 68.4512H248.869V77.6146H248.933C249.88 76.1315 251.554 75.1501 253.862 75.1501C257.621 75.1501 260.306 78.2782 260.275 82.9549C260.275 88.4854 256.767 91.2336 253.293 91.2336C251.302 91.2336 249.533 90.4734 248.426 88.5789H248.364L248.174 90.8847H244.855C244.919 89.844 244.983 88.1365 244.983 86.5568V68.4512H244.984ZM248.869 84.5347C248.869 84.8494 248.9 85.1672 248.964 85.4508C249.375 87.0306 250.733 88.1676 252.408 88.1676C254.84 88.1676 256.326 86.2421 256.326 83.1137C256.326 80.3969 255.03 78.1847 252.439 78.1847C250.859 78.1847 249.406 79.322 248.995 81.0263C248.932 81.3131 248.868 81.6588 248.868 82.0388V84.5347H248.869Z" fill="black"/>
<path d="M275.408 87.1897C275.408 88.5792 275.471 89.9378 275.66 90.885H272.154L271.869 89.1807H271.775C270.858 90.3802 269.247 91.2339 267.225 91.2339C264.128 91.2339 262.391 88.9906 262.391 86.6506C262.391 82.7965 265.835 80.8054 271.521 80.8396V80.5842C271.521 79.5746 271.112 77.8985 268.393 77.8985C266.877 77.8985 265.298 78.3751 264.255 79.0391L263.497 76.5089C264.634 75.814 266.625 75.1504 269.057 75.1504C273.986 75.1504 275.408 78.2785 275.408 81.6592V87.1897V87.1897ZM271.616 83.3666C268.868 83.3356 266.245 83.9025 266.245 86.2424C266.245 87.7566 267.225 88.4515 268.457 88.4515C270.037 88.4515 271.143 87.4419 271.521 86.3359C271.616 86.0523 271.616 85.7658 271.616 85.4822V83.3666V83.3666Z" fill="black"/>
<path d="M279.511 80.0794C279.511 78.3095 279.447 76.8264 279.383 75.4993H282.765L282.953 77.805H283.048C283.743 76.6056 285.418 75.1504 287.977 75.1504C290.663 75.1504 293.444 76.8889 293.444 81.7558V90.885H289.557V82.1982C289.557 79.9859 288.736 78.3099 286.619 78.3099C285.07 78.3099 283.997 79.4158 283.585 80.5842C283.459 80.9021 283.395 81.3755 283.395 81.8183V90.885H279.51V80.0794H279.511Z" fill="black"/>
<path d="M215.527 102.139H219.414V120.182H228.165V123.435H215.527V102.139Z" fill="black"/>
<path d="M235.082 103.754C235.082 104.891 234.23 105.838 232.871 105.838C231.575 105.838 230.723 104.891 230.723 103.754C230.723 102.551 231.606 101.635 232.902 101.635C234.229 101.635 235.051 102.551 235.082 103.754ZM230.944 123.436V108.05H234.829V123.436H230.944Z" fill="black"/>
<path d="M239.475 123.435V110.957H237.391V108.05H239.475V107.386C239.475 105.395 240.012 103.404 241.34 102.139C242.477 101.068 243.995 100.656 245.353 100.656C246.395 100.656 247.216 100.846 247.818 101.036L247.564 104.037C247.123 103.878 246.616 103.753 245.89 103.753C243.962 103.753 243.331 105.364 243.331 107.258V108.049H246.68V110.956H243.362V123.435H239.475V123.435Z" fill="black"/>
<path d="M251.509 116.834C251.604 119.613 253.752 120.815 256.248 120.815C258.049 120.815 259.314 120.529 260.513 120.118L261.082 122.772C259.755 123.342 257.923 123.754 255.711 123.754C250.719 123.754 247.781 120.688 247.781 115.98C247.781 111.714 250.372 107.701 255.301 107.701C260.293 107.701 261.936 111.808 261.936 115.191C261.936 115.917 261.872 116.484 261.81 116.833H251.509V116.834ZM258.27 114.116C258.301 112.693 257.67 110.356 255.08 110.356C252.677 110.356 251.666 112.537 251.509 114.116H258.27Z" fill="black"/>
<path d="M274.57 105.394H268.504V102.139H284.586V105.394H278.457V123.434H274.57V105.394V105.394Z" fill="black"/>
<path d="M287.239 116.834C287.334 119.613 289.482 120.815 291.978 120.815C293.779 120.815 295.043 120.529 296.244 120.118L296.813 122.772C295.485 123.342 293.653 123.754 291.441 123.754C286.45 123.754 283.512 120.688 283.512 115.98C283.512 111.714 286.103 107.701 291.032 107.701C296.023 107.701 297.667 111.808 297.667 115.191C297.667 115.917 297.603 116.484 297.54 116.833H287.24L287.239 116.834ZM294 114.116C294.033 112.693 293.4 110.356 290.81 110.356C288.407 110.356 287.396 112.537 287.239 114.116H294H294Z" fill="black"/>
<path d="M312.102 122.96C311.281 123.34 309.671 123.752 307.742 123.752C302.941 123.752 299.812 120.655 299.812 115.884C299.812 111.27 302.972 107.699 308.374 107.699C309.797 107.699 311.25 108.017 312.135 108.394L311.439 111.332C310.808 111.017 309.892 110.734 308.5 110.734C305.531 110.734 303.761 112.912 303.793 115.725C303.793 118.885 305.847 120.686 308.5 120.686C309.828 120.686 310.808 120.402 311.565 120.084L312.102 122.96V122.96Z" fill="black"/>
<path d="M314.977 101.002H318.862V110.134H318.926C319.399 109.408 320.063 108.807 320.853 108.396C321.643 107.953 322.559 107.701 323.539 107.701C326.161 107.701 328.91 109.44 328.91 114.369V123.435H325.023V114.78C325.023 112.568 324.202 110.86 322.054 110.86C320.537 110.86 319.462 111.873 319.021 113.041C318.893 113.39 318.862 113.798 318.862 114.21V123.435H314.977V101.002Z" fill="black"/>
<path d="M225.898 24.1345C226.642 20.5629 224.349 17.0645 220.778 16.3208C217.206 15.577 213.708 17.8695 212.964 21.4412C212.22 25.0128 214.513 28.5111 218.084 29.2549C221.656 29.9986 225.154 27.7062 225.898 24.1345Z" fill="#EC1B2E"/>
<path d="M29.9296 34.6797V88.466C29.9296 111.065 40.502 119.787 53.5858 119.787C68.387 119.787 78.5622 110.272 78.5622 88.466V34.6797H84.9055V87.806C84.9055 115.162 70.1043 125.206 53.3209 125.206C37.7256 125.206 23.5859 116.086 23.5859 88.8632V34.6797H29.9292H29.9296Z" fill="black"/>
<path d="M106.309 34.6797H112.652V118.466H152.297V123.752H106.309V34.6797H106.309Z" fill="black"/>
<path d="M172.121 39.9657H143.047V34.6797H207.538V39.9657H178.465V123.752H172.121V39.9657Z" fill="black"/>
</svg>
